{"asset":{"version":"2.0","generator":"Blockbench 5.1.3 glTF exporter"},"scenes":[{"nodes":[6],"name":"blockbench_export"}],"scene":0,"nodes":[{"translation":[-1.5,-1,2],"name":"cylinder","mesh":0},{"translation":[0,-0.25,0],"name":"mesh","mesh":1},{"translation":[0,0,-4.25],"name":"mesh","mesh":2},{"translation":[1.5,-1,2],"name":"cylinder","mesh":3},{"translation":[1.5,-1,-3],"name":"cylinder","mesh":4},{"translation":[-1.5,-1,-3],"name":"cylinder","mesh":5},{"translation":[0,1,0],"name":"root","children":[0,1,2,3,4,5]}],"bufferViews":[{"buffer":0,"byteOffset":0,"byteLength":1440,"target":34962,"byteStride":12},{"buffer":0,"byteOffset":1440,"byteLength":1440,"target":34962,"byteStride":12},{"buffer":0,"byteOffset":2880,"byteLength":960,"target":34962,"byteStride":8},{"buffer":0,"byteOffset":3840,"byteLength":288,"target":34963},{"buffer":0,"byteOffset":4128,"byteLength":288,"target":34962,"byteStride":12},{"buffer":0,"byteOffset":4416,"byteLength":288,"target":34962,"byteStride":12},{"buffer":0,"byteOffset":4704,"byteLength":192,"target":34962,"byteStride":8},{"buffer":0,"byteOffset":4896,"byteLength":72,"target":34963},{"buffer":0,"byteOffset":4968,"byteLength":480,"target":34962,"byteStride":12},{"buffer":0,"byteOffset":5448,"byteLength":480,"target":34962,"byteStride":12},{"buffer":0,"byteOffset":5928,"byteLength":320,"target":34962,"byteStride":8},{"buffer":0,"byteOffset":6248,"byteLength":120,"target":34963},{"buffer":0,"byteOffset":6368,"byteLength":1440,"target":34962,"byteStride":12},{"buffer":0,"byteOffset":7808,"byteLength":1440,"target":34962,"byteStride":12},{"buffer":0,"byteOffset":9248,"byteLength":960,"target":34962,"byteStride":8},{"buffer":0,"byteOffset":10208,"byteLength":288,"target":34963},{"buffer":0,"byteOffset":10496,"byteLength":1440,"target":34962,"byteStride":12},{"buffer":0,"byteOffset":11936,"byteLength":1440,"target":34962,"byteStride":12},{"buffer":0,"byteOffset":13376,"byteLength":960,"target":34962,"byteStride":8},{"buffer":0,"byteOffset":14336,"byteLength":288,"target":34963},{"buffer":0,"byteOffset":14624,"byteLength":1440,"target":34962,"byteStride":12},{"buffer":0,"byteOffset":16064,"byteLength":1440,"target":34962,"byteStride":12},{"buffer":0,"byteOffset":17504,"byteLength":960,"target":34962,"byteStride":8},{"buffer":0,"byteOffset":18464,"byteLength":288,"target":34963}],"buffers":[{"byteLength":18752,"uri":"data:application/octet-stream;base64,"}],"accessors":[{"bufferView":0,"componentType":5126,"count":120,"max":[0,0.5,0.5],"min":[-0.75,-0.5,-0.5],"type":"VEC3"},{"bufferView":1,"componentType":5126,"count":120,"max":[1,1,1],"min":[-1,-1,-1],"type":"VEC3"},{"bufferView":2,"componentType":5126,"count":120,"max":[0.4375,0.453125],"min":[0.265625,0.1875],"type":"VEC2"},{"bufferView":3,"componentType":5123,"count":144,"max":[119],"min":[0],"type":"SCALAR"},{"bufferView":4,"componentType":5126,"count":24,"max":[2,3.25,4.25],"min":[-2,-0.5,-2],"type":"VEC3"},{"bufferView":5,"componentType":5126,"count":24,"max":[1,1,1],"min":[-1,-1,-1],"type":"VEC3"},{"bufferView":6,"componentType":5126,"count":24,"max":[0.3984375,0.4453125],"min":[0,0],"type":"VEC2"},{"bufferView":7,"componentType":5123,"count":36,"max":[23],"min":[0],"type":"SCALAR"},{"bufferView":8,"componentType":5126,"count":40,"max":[2,2,2.25],"min":[-2,-0.75,-0.25],"type":"VEC3"},{"bufferView":9,"componentType":5126,"count":40,"max":[1,1,1],"min":[-1,-1,-1],"type":"VEC3"},{"bufferView":10,"componentType":5126,"count":40,"max":[0.5234375,0.419669508934021],"min":[0.1328125,0],"type":"VEC2"},{"bufferView":11,"componentType":5123,"count":60,"max":[39],"min":[0],"type":"SCALAR"},{"bufferView":12,"componentType":5126,"count":120,"max":[0.75,0.5,0.5],"min":[0,-0.5,-0.5],"type":"VEC3"},{"bufferView":13,"componentType":5126,"count":120,"max":[1,1,1],"min":[-1,-1,-1],"type":"VEC3"},{"bufferView":14,"componentType":5126,"count":120,"max":[0.4375,0.453125],"min":[0.265625,0.1875],"type":"VEC2"},{"bufferView":15,"componentType":5123,"count":144,"max":[119],"min":[0],"type":"SCALAR"},{"bufferView":16,"componentType":5126,"count":120,"max":[0.75,0.5,0.5],"min":[0,-0.5,-0.5],"type":"VEC3"},{"bufferView":17,"componentType":5126,"count":120,"max":[1,1,1],"min":[-1,-1,-1],"type":"VEC3"},{"bufferView":18,"componentType":5126,"count":120,"max":[0.4375,0.453125],"min":[0.265625,0.1875],"type":"VEC2"},{"bufferView":19,"componentType":5123,"count":144,"max":[119],"min":[0],"type":"SCALAR"},{"bufferView":20,"componentType":5126,"count":120,"max":[0,0.5,0.5],"min":[-0.75,-0.5,-0.5],"type":"VEC3"},{"bufferView":21,"componentType":5126,"count":120,"max":[1,1,1],"min":[-1,-1,-1],"type":"VEC3"},{"bufferView":22,"componentType":5126,"count":120,"max":[0.4375,0.453125],"min":[0.265625,0.1875],"type":"VEC2"},{"bufferView":23,"componentType":5123,"count":144,"max":[119],"min":[0],"type":"SCALAR"}],"materials":[{"pbrMetallicRoughness":{"metallicFactor":0,"roughnessFactor":1,"baseColorTexture":{"index":0}},"alphaMode":"MASK","alphaCutoff":0.05,"doubleSided":true}],"textures":[{"sampler":0,"source":0,"name":"texture"}],"samplers":[{"magFilter":9728,"minFilter":9728,"wrapS":33071,"wrapT":33071}],"images":[{"mimeType":"image/png","uri":"data:image/png;base64,"}],"meshes":[{"primitives":[{"mode":4,"attributes":{"POSITION":0,"NORMAL":1,"TEXCOORD_0":2},"indices":3,"material":0}]},{"primitives":[{"mode":4,"attributes":{"POSITION":4,"NORMAL":5,"TEXCOORD_0":6},"indices":7,"material":0}]},{"primitives":[{"mode":4,"attributes":{"POSITION":8,"NORMAL":9,"TEXCOORD_0":10},"indices":11,"material":0}]},{"primitives":[{"mode":4,"attributes":{"POSITION":12,"NORMAL":13,"TEXCOORD_0":14},"indices":15,"material":0}]},{"primitives":[{"mode":4,"attributes":{"POSITION":16,"NORMAL":17,"TEXCOORD_0":18},"indices":19,"material":0}]},{"primitives":[{"mode":4,"attributes":{"POSITION":20,"NORMAL":21,"TEXCOORD_0":22},"indices":23,"material":0}]}]}